<?xml version="1.0" encoding="UTF-8" standalone="no"?>
<!-- Created with Inkscape (http://www.inkscape.org/) -->

<svg
   version="1.1"
   id="svg1704"
   xml:space="preserve"
   width="682.66669"
   height="682.66669"
   viewBox="0 0 682.66669 682.66669"
   xmlns="http://www.w3.org/2000/svg"
   xmlns:svg="http://www.w3.org/2000/svg"><defs
     id="defs1708"><clipPath
       clipPathUnits="userSpaceOnUse"
       id="clipPath1718"><path
         d="M 0,512 H 512 V 0 H 0 Z"
         id="path1716" /></clipPath><clipPath
       clipPathUnits="userSpaceOnUse"
       id="clipPath1740"><path
         d="M 0,512 H 512 V 0 H 0 Z"
         id="path1738" /></clipPath><clipPath
       clipPathUnits="userSpaceOnUse"
       id="clipPath1760"><path
         d="M 0,512 H 512 V 0 H 0 Z"
         id="path1758" /></clipPath><clipPath
       clipPathUnits="userSpaceOnUse"
       id="clipPath1782"><path
         d="M 0,512 H 512 V 0 H 0 Z"
         id="path1780" /></clipPath></defs><g
     id="g1710"
     transform="matrix(1.3333333,0,0,-1.3333333,0,682.66667)"><g
       id="g1712"><g
         id="g1714"
         clip-path="url(#clipPath1718)"><path
           d="M 497,336.333 H 336.333 V 497 H 497 Z"
           style="fill:none;stroke:#000000;stroke-width:30;stroke-linecap:round;stroke-linejoin:round;stroke-miterlimit:10;stroke-dasharray:none;stroke-opacity:1"
           id="path1720" /><path
           d="M 336.333,336.333 H 175.666 V 497 h 160.667 z"
           style="fill:none;stroke:#000000;stroke-width:30;stroke-linecap:round;stroke-linejoin:round;stroke-miterlimit:10;stroke-dasharray:none;stroke-opacity:1"
           id="path1722" /><path
           d="M 175.667,336.333 H 15 V 497 h 160.667 z"
           style="fill:none;stroke:#000000;stroke-width:30;stroke-linecap:round;stroke-linejoin:round;stroke-miterlimit:10;stroke-dasharray:none;stroke-opacity:1"
           id="path1724" /></g></g><g
       id="g1726"
       transform="translate(65.3335,386.6665)"><path
         d="M 0,0 60,60"
         style="fill:none;stroke:#000000;stroke-width:30;stroke-linecap:round;stroke-linejoin:round;stroke-miterlimit:10;stroke-dasharray:none;stroke-opacity:1"
         id="path1728" /></g><g
       id="g1730"
       transform="translate(125.3335,386.6665)"><path
         d="M 0,0 -60,60"
         style="fill:none;stroke:#000000;stroke-width:30;stroke-linecap:round;stroke-linejoin:round;stroke-miterlimit:10;stroke-dasharray:none;stroke-opacity:1"
         id="path1732" /></g><g
       id="g1734"><g
         id="g1736"
         clip-path="url(#clipPath1740)"><path
           d="M 497,175.667 H 336.333 V 336.334 H 497 Z"
           style="fill:none;stroke:#000000;stroke-width:30;stroke-linecap:round;stroke-linejoin:round;stroke-miterlimit:10;stroke-dasharray:none;stroke-opacity:1"
           id="path1742" /></g></g><path
       d="M 336.333,175.667 H 175.666 v 160.667 h 160.667 z"
       style="fill:none;stroke:#000000;stroke-width:30;stroke-linecap:round;stroke-linejoin:round;stroke-miterlimit:10;stroke-dasharray:none;stroke-opacity:1"
       id="path1744" /><g
       id="g1746"
       transform="translate(226,226)"><path
         d="M 0,0 60,60"
         style="fill:none;stroke:#000000;stroke-width:30;stroke-linecap:round;stroke-linejoin:round;stroke-miterlimit:10;stroke-dasharray:none;stroke-opacity:1"
         id="path1748" /></g><g
       id="g1750"
       transform="translate(286,226)"><path
         d="M 0,0 -60,60"
         style="fill:none;stroke:#000000;stroke-width:30;stroke-linecap:round;stroke-linejoin:round;stroke-miterlimit:10;stroke-dasharray:none;stroke-opacity:1"
         id="path1752" /></g><g
       id="g1754"><g
         id="g1756"
         clip-path="url(#clipPath1760)"><path
           d="M 175.667,175.667 H 15 v 160.667 h 160.667 z"
           style="fill:none;stroke:#000000;stroke-width:30;stroke-linecap:round;stroke-linejoin:round;stroke-miterlimit:10;stroke-dasharray:none;stroke-opacity:1"
           id="path1762" /><path
           d="M 497,15 H 336.333 V 175.667 H 497 Z"
           style="fill:none;stroke:#000000;stroke-width:30;stroke-linecap:round;stroke-linejoin:round;stroke-miterlimit:10;stroke-dasharray:none;stroke-opacity:1"
           id="path1764" /><path
           d="M 336.333,15 H 175.666 v 160.667 h 160.667 z"
           style="fill:none;stroke:#000000;stroke-width:30;stroke-linecap:round;stroke-linejoin:round;stroke-miterlimit:10;stroke-dasharray:none;stroke-opacity:1"
           id="path1766" /></g></g><g
       id="g1768"
       transform="translate(226,65.3335)"><path
         d="M 0,0 60,60"
         style="fill:none;stroke:#000000;stroke-width:30;stroke-linecap:round;stroke-linejoin:round;stroke-miterlimit:10;stroke-dasharray:none;stroke-opacity:1"
         id="path1770" /></g><g
       id="g1772"
       transform="translate(286,65.3335)"><path
         d="M 0,0 -60,60"
         style="fill:none;stroke:#000000;stroke-width:30;stroke-linecap:round;stroke-linejoin:round;stroke-miterlimit:10;stroke-dasharray:none;stroke-opacity:1"
         id="path1774" /></g><g
       id="g1776"><g
         id="g1778"
         clip-path="url(#clipPath1782)"><path
           d="M 175.667,15 H 15 v 160.667 h 160.667 z"
           style="fill:none;stroke:#000000;stroke-width:30;stroke-linecap:round;stroke-linejoin:round;stroke-miterlimit:10;stroke-dasharray:none;stroke-opacity:1"
           id="path1784" /><g
           id="g1786"
           transform="translate(125.3335,95.3335)"><path
             d="m 0,0 c 0,-16.569 -13.432,-30 -30,-30 -16.569,0 -30,13.431 -30,30 0,16.568 13.431,30 30,30 C -13.432,30 0,16.568 0,0 Z"
             style="fill:none;stroke:#000000;stroke-width:30;stroke-linecap:round;stroke-linejoin:round;stroke-miterlimit:10;stroke-dasharray:none;stroke-opacity:1"
             id="path1788" /></g><g
           id="g1790"
           transform="translate(446.667,256)"><path
             d="m 0,0 c 0,-16.568 -13.432,-30 -30,-30 -16.569,0 -30,13.432 -30,30 0,16.568 13.431,30 30,30 C -13.432,30 0,16.568 0,0 Z"
             style="fill:none;stroke:#000000;stroke-width:30;stroke-linecap:round;stroke-linejoin:round;stroke-miterlimit:10;stroke-dasharray:none;stroke-opacity:1"
             id="path1792" /></g><g
           id="g1794"
           transform="translate(446.667,416.6665)"><path
             d="m 0,0 c 0,-16.568 -13.432,-30 -30,-30 -16.569,0 -30,13.432 -30,30 0,16.569 13.431,30 30,30 C -13.432,30 0,16.569 0,0 Z"
             style="fill:none;stroke:#000000;stroke-width:30;stroke-linecap:round;stroke-linejoin:round;stroke-miterlimit:10;stroke-dasharray:none;stroke-opacity:1"
             id="path1796" /></g></g></g></g></svg>
